# Blender v3.2.0 OBJ File: 'house.blend'
# www.blender.org
mtllib house.mtl
o Cube
v -1.000000 1.000000 1.000000
v -1.000000 0.000000 1.000000
v -1.000000 1.000000 -1.000000
v -1.000000 0.000000 -1.000000
v 1.000000 1.000000 1.000000
v 1.000000 0.000000 1.000000
v 1.000000 1.000000 -1.000000
v 1.000000 0.000000 -1.000000
v 1.000000 0.000000 0.000000
v -1.000000 1.495268 0.000000
v 1.000000 1.495268 0.000000
v -1.000000 0.000000 0.000000
v 0.248434 1.315681 0.363534
v -0.275557 1.311184 0.365883
v -0.271575 1.115954 0.754482
v 0.251517 1.120189 0.757326
v 0.247342 1.997981 0.366908
v -0.272392 1.993484 0.365495
v -0.271575 1.982270 0.758785
v 0.251517 1.986505 0.761629
v -1.000000 0.000000 -0.411455
v -1.000000 0.000000 0.325398
v -1.000000 0.677167 0.000000
v -1.000000 0.684293 0.303325
v -1.000000 0.666951 -0.411620
vn 0.0000 0.8961 -0.4438
vn 0.0000 0.0000 -1.0000
vn 1.0000 0.0000 0.0000
vn 0.0000 -1.0000 0.0000
vn 0.0000 0.0000 1.0000
vn -1.0000 0.0000 0.0000
vn 0.0036 0.8961 0.4438
vn 0.0005 0.8961 0.4438
vn 0.0000 0.9042 0.4271
vn -0.0097 0.8839 0.4677
vn 0.0090 0.8936 0.4488
vn 0.0000 0.8966 0.4429
vn -0.0056 0.8888 0.4582
vn -0.0003 0.8957 0.4447
vn -0.0083 0.9995 0.0291
vn -0.0054 -0.0050 1.0000
vn 0.0027 0.0049 -1.0000
vn 1.0000 0.0000 -0.0078
vn -1.0000 0.0046 0.0022
vn -0.0087 0.9996 0.0285
vn -0.0045 -0.0005 -1.0000
vn 0.9999 0.0017 -0.0105
vn -0.9999 -0.0001 0.0102
usemtl Material
s off
f 11//1 3//1 10//1
f 3//2 8//2 4//2
f 9//3 5//3 6//3
f 21//4 4//4 8//4
f 5//5 2//5 6//5
f 10//6 23//6 24//6
f 22//4 12//4 9//4
f 7//3 9//3 8//3
f 14//7 10//7 1//7
f 13//8 5//8 11//8
f 3//6 4//6 25//6
f 11//1 7//1 3//1
f 3//2 7//2 8//2
f 9//3 11//3 5//3
f 8//4 9//4 21//4
f 9//4 12//4 21//4
f 5//5 1//5 2//5
f 22//6 2//6 24//6
f 2//6 1//6 24//6
f 1//6 10//6 24//6
f 9//4 6//4 22//4
f 6//4 2//4 22//4
f 7//3 11//3 9//3
f 1//9 5//9 15//9
f 5//10 16//10 15//10
f 15//11 14//11 1//11
f 11//12 10//12 13//12
f 10//13 14//13 13//13
f 13//14 16//14 5//14
f 4//6 21//6 25//6
f 25//6 23//6 3//6
f 23//6 10//6 3//6
usemtl Material.001
f 17//15 19//15 20//15
f 16//16 19//16 15//16
f 13//17 18//17 17//17
f 13//18 20//18 16//18
f 14//19 19//19 18//19
f 17//20 18//20 19//20
f 16//16 20//16 19//16
f 13//21 14//21 18//21
f 13//22 17//22 20//22
f 14//23 15//23 19//23
usemtl Material.002
f 12//6 25//6 21//6
f 22//6 23//6 12//6
f 12//6 23//6 25//6
f 22//6 24//6 23//6
