# Blender v3.2.0 OBJ File: 'rock.blend'
# www.blender.org
mtllib rock.mtl
o Cube
v -1.000000 2.000000 1.000000
v -2.422083 0.000000 1.633554
v -0.849022 2.039956 -0.911274
v -2.015178 0.000000 -2.082139
v 0.820197 2.000000 1.000000
v 1.000000 0.000000 2.813057
v 0.774388 1.803963 -0.712771
v 2.470787 0.000000 -1.000000
v -0.711041 0.000000 2.521921
v 0.000000 2.000000 -1.000000
v -0.057213 0.000000 -2.754362
v 0.000000 2.000000 1.000000
v 0.144479 0.000000 2.518181
v 0.500000 2.000000 -1.000000
v 1.349296 0.000000 -2.558881
v 0.500000 2.000000 1.000000
v -0.893687 0.000000 -2.418250
v -0.500000 2.000000 1.000000
v -1.566562 0.000000 1.928430
v -0.500000 1.764178 -1.000000
v 2.126465 0.000000 0.906528
v -1.000000 2.000000 0.000000
v 1.000000 1.838283 0.000000
v -2.447104 0.000000 -0.224292
v -0.241619 0.000000 -0.265528
v 0.000000 2.164015 0.000000
v 0.746888 0.000000 0.277794
v 0.500000 2.000000 0.000000
v -0.500000 2.265606 0.000000
v -1.230124 0.000000 -0.244910
v 2.103090 0.000000 -0.046736
v -1.000000 2.000000 -0.500000
v -0.006907 0.000000 -1.509945
v 0.000000 2.353121 -0.500000
v 1.048092 0.000000 -0.842399
v 0.500000 2.211237 -0.500000
v -0.671054 2.000000 -0.450021
v -1.061906 0.000000 -1.331580
v 1.000000 1.838896 -0.385397
v -2.547704 0.000000 -1.376586
v 1.000000 2.000000 0.500000
v -2.725470 0.000000 0.944987
v 1.367697 0.000000 2.069458
v -1.000000 2.000000 0.500000
v -0.476330 0.000000 0.978889
v 0.000000 2.523838 0.500000
v 0.445683 0.000000 1.397988
v 0.500000 2.422318 0.500000
v -0.500000 2.385063 0.500000
v -1.398343 0.000000 0.841760
v -1.711041 1.000000 1.147504
v 1.593840 1.000000 -1.000000
v -1.507589 1.000000 -1.541069
v 1.000000 1.000000 1.291852
v -0.355521 1.000000 1.716320
v 0.113902 1.000000 -1.877181
v 0.322240 1.000000 1.759091
v 0.767551 1.000000 -1.481296
v -0.696843 1.000000 -1.575156
v -1.033281 1.000000 1.614444
v -1.729288 1.000000 -0.112146
v 1.619184 1.000000 0.453264
v 1.551545 1.000000 -0.273368
v -1.774537 1.000000 -0.966510
v -1.660178 1.000000 0.602316
v 1.183848 1.000000 1.179896
v -2.066562 0.500000 1.475166
v -1.761384 0.500000 -1.811604
v 0.827650 0.500000 1.922442
v -0.533281 0.500000 1.917479
v 0.170853 0.500000 -2.315771
v 0.233359 0.500000 2.138636
v 1.136972 0.500000 -1.921677
v -0.935014 0.500000 -2.214677
v -1.299922 0.500000 1.986731
v -2.113755 0.500000 -0.168219
v 1.551545 0.500000 0.679896
v 1.827318 0.500000 -0.160052
v -1.837678 0.500000 -0.989912
v -1.990268 0.731736 0.653473
v 1.275773 0.500000 1.519845
v 2.103090 0.500000 -1.000000
v 1.239781 1.500000 -1.000000
v -1.355521 1.500000 0.861311
v -1.415330 1.500000 -1.270535
v 1.000000 1.500000 0.897423
v -0.177760 1.500000 1.498248
v 0.056951 1.500000 -1.438591
v 0.411120 1.500000 1.379545
v 0.712324 1.500000 -1.012287
v -0.436498 1.500000 -1.354563
v -0.766641 1.500000 1.232108
v -1.304658 1.725950 -0.194728
v 1.183848 1.500000 0.064860
v 1.275773 1.500000 -0.386684
v -1.279226 1.500000 -0.663304
v -1.476957 1.500000 0.551158
v 1.091924 1.500000 0.543278
vn 0.7292 0.6304 -0.2663
vn 0.0166 0.7001 -0.7139
vn 0.9492 0.1958 0.2464
vn 0.0000 -1.0000 0.0000
vn -0.7333 0.6597 0.1644
vn -0.5274 0.1427 0.8376
vn 0.1464 0.6717 0.7263
vn -0.1282 0.6457 -0.7528
vn -0.3784 0.8023 -0.4617
vn 0.6320 0.0689 0.7719
vn 0.5287 0.2445 -0.8128
vn 0.2258 0.7957 -0.5620
vn -0.0139 0.9957 0.0916
vn -0.0517 0.7964 -0.6026
vn -0.3465 0.5406 0.7666
vn -0.4691 0.8831 0.0000
vn 0.1626 0.8009 -0.5763
vn 0.1939 0.9542 -0.2280
vn -0.6885 0.7228 0.0599
vn 0.8510 0.4957 0.1732
vn 0.5422 0.6419 -0.5422
vn 0.5330 0.8456 -0.0313
vn 0.0000 1.0000 0.0000
vn 0.2565 0.9040 0.3419
vn -0.4602 0.8300 -0.3150
vn -0.7868 0.5381 -0.3022
vn 0.5125 0.7910 0.3342
vn 0.0000 0.7640 0.6453
vn -0.6834 0.6793 0.2676
vn 0.0000 0.7923 0.6102
vn 0.1388 0.6838 0.7164
vn 0.8532 0.4951 0.1639
vn 0.8861 0.3607 0.2909
vn -0.7776 0.6203 0.1027
vn -0.9395 0.1334 -0.3156
vn 0.6828 0.6954 0.2242
vn 0.9500 0.0129 0.3119
vn -0.7886 0.6125 -0.0542
vn 0.0739 0.5699 0.8184
vn -0.3577 0.5783 -0.7333
vn 0.2870 0.6500 -0.7037
vn 0.2863 0.5465 0.7870
vn -0.0689 0.6534 -0.7539
vn -0.2494 0.4365 0.8645
vn -0.4045 0.6848 0.6062
vn -0.8705 0.4856 -0.0808
vn 0.5455 0.5777 0.6072
vn 0.5647 0.5751 -0.5919
vn 0.5491 0.7366 -0.3950
vn 0.6034 0.7395 0.2984
vn -0.6443 0.5902 -0.4863
vn -0.2878 0.4691 0.8349
vn 0.0028 0.7701 0.6379
vn -0.3522 0.3278 -0.8766
vn -0.1749 0.8437 0.5075
vn 0.1072 0.6276 -0.7712
vn -0.2392 0.5532 -0.7980
vn -0.5580 0.2038 0.8044
vn -0.7284 0.6628 -0.1734
vn 0.6598 0.7513 -0.0162
vn 0.7693 0.5658 0.2967
vn -0.5937 0.8030 0.0518
vn -0.7221 0.6142 0.3182
vn 0.6685 0.6024 0.4362
vn 0.6659 0.6304 0.3990
vn -0.8330 0.5478 -0.0777
vn -0.7214 0.6915 0.0382
vn 0.8696 0.4911 0.0506
vn 0.7794 0.6223 -0.0726
vn -0.9321 0.3508 0.0902
vn -0.1141 0.6411 0.7589
vn -0.0368 0.4808 -0.8761
vn 0.4027 0.6291 -0.6649
vn 0.5027 0.4642 0.7292
vn -0.3000 0.5115 -0.8052
vn -0.0573 0.4162 0.9075
vn -0.4270 0.6584 0.6198
vn -0.8434 0.3676 -0.3918
vn 0.4313 0.5588 0.7083
vn 0.4741 0.3357 -0.8139
vn 0.5925 0.6487 -0.4776
vn 0.7850 0.3460 -0.5138
vn 0.9087 0.2597 0.3268
vn -0.8100 0.5326 -0.2456
vn 0.0000 0.4211 0.9070
vn 0.0000 0.6046 0.7965
vn -0.3412 0.7235 -0.6001
vn -0.4274 0.7385 -0.5215
vn 0.0000 0.6594 -0.7518
vn 0.0000 0.9212 -0.3892
vn 0.5872 0.7939 -0.1578
vn 0.1311 0.4501 -0.8833
vn 0.0000 0.7059 0.7083
vn -0.5995 0.7785 -0.1860
vn 0.2431 0.7410 -0.6259
vn -0.2198 0.7918 -0.5698
vn -0.7236 0.6902 0.0000
vn 0.7756 0.6312 0.0010
vn 0.2941 0.9094 -0.2941
vn 0.6638 0.5421 -0.5153
vn -0.4438 0.8354 -0.3244
vn 0.2893 0.8818 0.3725
vn 0.1867 0.9189 0.3475
vn -0.6688 0.7435 0.0000
vn 0.3077 0.9515 0.0015
vn 0.6286 0.7442 0.2260
vn -0.8150 0.5795 0.0000
vn -0.1882 0.6781 0.7104
vn -0.5209 0.6763 0.5209
vn 0.9828 0.1758 -0.0568
vn 0.8520 0.1161 0.5105
vn -0.6351 0.7702 -0.0593
vn -0.7943 0.6061 0.0421
vn 0.8804 0.4670 -0.0820
vn -0.6239 0.7792 0.0603
vn -0.1355 0.4109 0.9016
vn -0.0256 0.7922 -0.6098
vn 0.3423 0.7506 -0.5651
vn 0.4340 0.6444 0.6296
vn -0.2063 0.8067 -0.5538
vn -0.0499 0.6095 0.7912
vn -0.4184 0.6753 0.6073
vn -0.8988 0.1331 -0.4176
vn 0.4308 0.5602 0.7075
vn 0.3331 0.7497 -0.5718
vn 0.6155 0.4526 -0.6452
vn 0.4868 0.6851 0.5419
vn -0.5560 0.8295 -0.0516
vn -0.5444 0.1952 0.8158
vn -0.2187 0.6144 0.7581
vn -0.0672 0.6751 -0.7347
vn 0.2259 0.8015 -0.5537
vn -0.4163 0.3131 -0.8536
vn 0.0584 0.7607 0.6464
vn -0.8299 0.5569 -0.0323
vn 0.8166 0.5112 0.2681
vn -0.7883 0.5553 -0.2649
vn -0.6689 0.7293 0.1436
vn 0.5982 0.7769 0.1964
vn 0.6938 0.7077 0.1333
vn -0.8709 0.3540 0.3410
vn -0.8443 0.4633 -0.2692
vn 0.8152 0.5772 -0.0478
vn 0.8456 0.5054 0.1721
vn -0.8646 0.5002 -0.0482
vn -0.3618 0.4778 0.8005
vn -0.0770 0.4357 -0.8968
vn 0.4162 0.6461 -0.6398
vn 0.5407 0.5210 0.6604
vn 0.1612 0.5784 0.7997
vn -0.3899 0.6815 0.6193
vn -0.7494 0.6405 0.1680
vn 0.8665 0.4457 0.2249
vn 0.0170 0.6850 -0.7283
usemtl Material
s off
f 36//1 7//1 14//1
f 90//2 7//2 83//2
f 41//3 86//3 98//3
f 38//4 4//4 17//4
f 96//5 3//5 85//5
f 92//6 1//6 84//6
f 89//7 12//7 87//7
f 33//4 15//4 35//4
f 91//8 10//8 88//8
f 37//9 10//9 20//9
f 35//4 8//4 31//4
f 5//10 89//10 86//10
f 88//11 14//11 90//11
f 36//12 10//12 34//12
f 37//13 3//13 32//13
f 85//14 20//14 91//14
f 87//15 18//15 92//15
f 33//4 17//4 11//4
f 45//4 30//4 25//4
f 44//16 29//16 22//16
f 48//17 26//17 46//17
f 47//4 21//4 43//4
f 49//18 26//18 29//18
f 45//4 27//4 47//4
f 97//19 22//19 93//19
f 50//4 24//4 30//4
f 95//20 23//20 94//20
f 41//21 28//21 48//21
f 7//22 95//22 83//22
f 25//4 38//4 33//4
f 22//23 37//23 32//23
f 26//24 36//24 34//24
f 27//4 31//4 21//4
f 29//25 34//25 37//25
f 25//4 35//4 27//4
f 93//26 32//26 96//26
f 30//4 40//4 38//4
f 28//27 39//27 36//27
f 5//28 48//28 16//28
f 2//4 50//4 19//4
f 84//29 44//29 97//29
f 9//4 47//4 13//4
f 12//30 49//30 18//30
f 13//4 43//4 6//4
f 12//31 48//31 46//31
f 18//23 44//23 1//23
f 19//4 45//4 9//4
f 23//32 98//32 94//32
f 77//33 66//33 81//33
f 51//34 80//34 67//34
f 76//35 64//35 79//35
f 52//36 78//36 82//36
f 78//37 62//37 77//37
f 80//38 61//38 76//38
f 70//39 60//39 75//39
f 53//40 74//40 68//40
f 56//41 73//41 71//41
f 69//42 57//42 72//42
f 74//43 56//43 71//43
f 72//44 55//44 70//44
f 75//45 51//45 67//45
f 79//46 53//46 68//46
f 81//47 54//47 69//47
f 73//48 52//48 82//48
f 73//49 8//49 15//49
f 43//50 69//50 6//50
f 40//51 68//51 4//51
f 19//52 67//52 2//52
f 13//53 70//53 9//53
f 74//54 11//54 17//54
f 69//55 13//55 6//55
f 71//56 15//56 11//56
f 68//57 17//57 4//57
f 9//58 75//58 19//58
f 80//59 24//59 42//59
f 31//60 77//60 21//60
f 82//61 31//61 8//61
f 24//62 79//62 40//62
f 67//63 42//63 2//63
f 21//64 81//64 43//64
f 62//65 98//65 66//65
f 84//66 65//66 51//66
f 61//67 96//67 64//67
f 52//68 95//68 63//68
f 63//69 94//69 62//69
f 97//70 61//70 65//70
f 55//71 92//71 60//71
f 85//72 59//72 53//72
f 88//73 58//73 56//73
f 54//74 89//74 57//74
f 91//75 56//75 59//75
f 57//76 87//76 55//76
f 60//77 84//77 51//77
f 64//78 85//78 53//78
f 66//79 86//79 54//79
f 58//80 83//80 52//80
f 36//81 39//81 7//81
f 90//82 14//82 7//82
f 41//83 5//83 86//83
f 38//4 40//4 4//4
f 96//84 32//84 3//84
f 92//85 18//85 1//85
f 89//86 16//86 12//86
f 33//4 11//4 15//4
f 91//87 20//87 10//87
f 37//88 34//88 10//88
f 35//4 15//4 8//4
f 5//86 16//86 89//86
f 88//89 10//89 14//89
f 36//90 14//90 10//90
f 37//91 20//91 3//91
f 85//92 3//92 20//92
f 87//93 12//93 18//93
f 33//4 38//4 17//4
f 45//4 50//4 30//4
f 44//94 49//94 29//94
f 48//95 28//95 26//95
f 47//4 27//4 21//4
f 49//96 46//96 26//96
f 45//4 25//4 27//4
f 97//97 44//97 22//97
f 50//4 42//4 24//4
f 95//98 39//98 23//98
f 41//99 23//99 28//99
f 7//100 39//100 95//100
f 25//4 30//4 38//4
f 22//101 29//101 37//101
f 26//102 28//102 36//102
f 27//4 35//4 31//4
f 29//103 26//103 34//103
f 25//4 33//4 35//4
f 93//104 22//104 32//104
f 30//4 24//4 40//4
f 28//105 23//105 39//105
f 5//106 41//106 48//106
f 2//4 42//4 50//4
f 84//107 1//107 44//107
f 9//4 45//4 47//4
f 12//108 46//108 49//108
f 13//4 47//4 43//4
f 12//28 16//28 48//28
f 18//109 49//109 44//109
f 19//4 50//4 45//4
f 23//110 41//110 98//110
f 77//111 62//111 66//111
f 51//112 65//112 80//112
f 76//113 61//113 64//113
f 52//68 63//68 78//68
f 78//114 63//114 62//114
f 80//115 65//115 61//115
f 70//116 55//116 60//116
f 53//117 59//117 74//117
f 56//118 58//118 73//118
f 69//119 54//119 57//119
f 74//120 59//120 56//120
f 72//121 57//121 55//121
f 75//122 60//122 51//122
f 79//123 64//123 53//123
f 81//124 66//124 54//124
f 73//125 58//125 52//125
f 73//126 82//126 8//126
f 43//127 81//127 69//127
f 40//128 79//128 68//128
f 19//129 75//129 67//129
f 13//130 72//130 70//130
f 74//131 71//131 11//131
f 69//42 72//42 13//42
f 71//132 73//132 15//132
f 68//133 74//133 17//133
f 9//134 70//134 75//134
f 80//135 76//135 24//135
f 31//136 78//136 77//136
f 82//136 78//136 31//136
f 24//137 76//137 79//137
f 67//138 80//138 42//138
f 21//139 77//139 81//139
f 62//140 94//140 98//140
f 84//141 97//141 65//141
f 61//142 93//142 96//142
f 52//143 83//143 95//143
f 63//144 95//144 94//144
f 97//145 93//145 61//145
f 55//146 87//146 92//146
f 85//147 91//147 59//147
f 88//148 90//148 58//148
f 54//149 86//149 89//149
f 91//8 88//8 56//8
f 57//150 89//150 87//150
f 60//151 92//151 84//151
f 64//152 96//152 85//152
f 66//153 98//153 86//153
f 58//154 90//154 83//154
