# Blender v3.2.0 OBJ File: 'rubikscube.blend'
# www.blender.org
mtllib rubikscube.mtl
o Cube
v -1.000000 1.000000 1.000000
v -1.000000 -1.000000 1.000000
v -1.000000 1.000000 -1.000000
v -1.000000 -1.000000 -1.000000
v 1.000000 1.000000 1.000000
v 1.000000 -1.000000 1.000000
v 1.000000 1.000000 -1.000000
v 1.000000 -1.000000 -1.000000
vt 0.679688 0.664062
vt 0.347656 0.984375
vt 0.343750 0.664062
vt 1.003906 0.000000
vt 0.675781 0.324219
vt 0.675781 0.003906
vt 0.343750 0.328125
vt 0.011719 0.652344
vt 0.011719 0.324219
vt 0.671875 0.000000
vt 0.335938 0.328125
vt 0.332031 -0.003906
vt 0.679688 0.332031
vt 0.343750 0.656250
vt 0.339844 0.332031
vt 0.996094 0.335938
vt 0.671875 0.656250
vt 0.664062 0.328125
vt 0.664062 0.984375
vt 1.000000 0.328125
vt 0.343750 0.660156
vt 0.671875 0.328125
vt 0.675781 0.664062
vt 1.000000 0.656250
vn 0.0000 1.0000 0.0000
vn 0.0000 0.0000 -1.0000
vn 1.0000 0.0000 0.0000
vn 0.0000 -1.0000 0.0000
vn -1.0000 0.0000 0.0000
vn 0.0000 0.0000 1.0000
usemtl Material
s off
f 5/1/1 3/2/1 1/3/1
f 3/4/2 8/5/2 4/6/2
f 7/7/3 6/8/3 8/9/3
f 2/10/4 8/11/4 6/12/4
f 1/13/5 4/14/5 2/15/5
f 5/16/6 2/17/6 6/18/6
f 5/1/1 7/19/1 3/2/1
f 3/4/2 7/20/2 8/5/2
f 7/7/3 5/21/3 6/8/3
f 2/10/4 4/22/4 8/11/4
f 1/13/5 3/23/5 4/14/5
f 5/16/6 1/24/6 2/17/6
